# xmcd CD database file
#
# Track frame offsets:
#	150
#	16162
#	29570
#	48392
#	63725
#	86210
#	102752
#	124197
#	141800
#	158545
#
# Disc length: 2377 seconds
#
# Revision: 0
# Processed by: cddbd v1.5PL3 Copyright (c) Steve Scherf et al.
# Submitted via: CDex 1.51
#
DISCID=8209470a
DTITLE=制服向上委員会 - Unit Volume.3
DYEAR=1999
DGENRE=Pop
TTITLE0=寿隊/三位一体
TTITLE1=寿隊/鳥が鳴く
TTITLE2=SKi-T/あたしとわたし
TTITLE3=SKi-A/疑問
TTITLE4=YUKIKO/冷たい風と朝日の中で
TTITLE5=SKi-7/悪魔のPTA
TTITLE6=MIKA/愛を君だけに
TTITLE7=4人1組/花言葉
TTITLE8=4人1組/あなたのそばで
TTITLE9=4人1組/去りゆく時へ
EXTD=YEAR: 1999
EXTT0=
EXTT1=
EXTT2=
EXTT3=
EXTT4=
EXTT5=
EXTT6=
EXTT7=
EXTT8=
EXTT9=
PLAYORDER=
